<svg xmlns="http://www.w3.org/2000/svg"  viewBox="0 0 100 100" width="66px" height="66px"><path d="M 22.599609 17.800781 C 19.899609 17.800781 17.699219 19.999219 17.699219 22.699219 L 17.699219 33.699219 C 17.699219 34.299219 18.099219 34.699219 18.699219 34.699219 L 25.599609 34.699219 L 25.599609 54.5 L 16.400391 54.5 C 14.700391 54.5 13.300781 55.899609 13.300781 57.599609 L 13.300781 73.099609 C 13.300781 73.499609 13.4 73.799219 13.5 74.199219 L 4.3007812 74.199219 C 3.7007812 74.199219 3.3007813 74.599219 3.3007812 75.199219 C 3.3007812 75.799219 3.7007813 76.300781 4.3007812 76.300781 L 22.5 76.300781 L 22.699219 76.300781 L 22.800781 76.300781 L 22.900391 76.300781 C 23.400391 76.200781 23.699219 75.800781 23.699219 75.300781 C 23.699219 74.700781 23.299219 74.300781 22.699219 74.300781 L 16.300781 74.300781 C 15.700781 74.300781 15.199219 73.799219 15.199219 73.199219 L 15.199219 57.699219 C 15.199219 57.099219 15.700781 56.599609 16.300781 56.599609 L 44.199219 56.599609 C 44.799219 56.599609 45.300781 57.099219 45.300781 57.699219 L 45.300781 73.199219 C 45.300781 73.799219 44.799219 74.300781 44.199219 74.300781 L 28.5 74.300781 C 27.9 74.300781 27.5 74.700781 27.5 75.300781 C 27.5 75.900781 27.9 76.300781 28.5 76.300781 L 29.400391 76.300781 L 29.5 76.300781 L 30.099609 76.300781 L 30.300781 76.300781 L 87.800781 76.300781 C 88.400781 76.300781 88.800781 75.900781 88.800781 75.300781 C 88.800781 74.700781 88.400781 74.300781 87.800781 74.300781 L 84.599609 74.300781 C 85.099609 73.600781 85.400391 72.699219 85.400391 71.699219 L 85.400391 50.699219 C 85.400391 48.199219 83.400391 46.199219 80.900391 46.199219 L 69.599609 46.199219 L 69.599609 23.599609 C 69.599609 20.399609 67.099609 17.800781 64.099609 17.800781 L 22.599609 17.800781 z M 22.5 19.900391 C 24.1 19.900391 25.400391 21.200781 25.400391 22.800781 L 25.400391 32.800781 L 19.599609 32.800781 L 19.599609 22.800781 C 19.599609 21.200781 20.9 19.900391 22.5 19.900391 z M 26.5 19.900391 L 64 19.900391 C 66 19.900391 67.5 21.599219 67.5 23.699219 L 67.5 46.300781 L 64 46.300781 C 61.5 46.300781 59.5 48.300781 59.5 50.800781 L 59.5 51.099609 L 32.5 51.099609 C 32 51.099609 31.5 51.499609 31.5 52.099609 C 31.5 52.699609 32 53.099609 32.5 53.099609 L 59.599609 53.099609 L 59.599609 59.699219 L 47.300781 59.699219 L 47.300781 57.699219 C 47.300781 55.999219 45.899219 54.599609 44.199219 54.599609 L 27.5 54.599609 L 27.5 22.800781 C 27.5 21.700781 27.1 20.700391 26.5 19.900391 z M 80.394531 20.480469 C 80.299219 20.469531 80.199609 20.475 80.099609 20.5 C 79.699609 20.6 79.499609 21.000391 79.599609 21.400391 L 79.800781 22.400391 L 78.800781 22.599609 C 78.400781 22.699609 78.200781 23.1 78.300781 23.5 C 78.400781 23.9 78.799219 24.099609 79.199219 24.099609 L 80.199219 23.900391 L 80.400391 24.900391 C 80.500391 25.300391 80.900781 25.500391 81.300781 25.400391 C 81.700781 25.300391 81.900391 24.9 81.900391 24.5 L 81.699219 23.5 L 82.699219 23.300781 C 82.999219 23.100781 83.199609 22.700781 83.099609 22.300781 C 82.999609 21.900781 82.599219 21.700781 82.199219 21.800781 L 81.199219 22 L 81 21 C 80.925 20.7 80.680469 20.513281 80.394531 20.480469 z M 13.605469 21.996094 C 13.319531 22.057031 13.075 22.299609 13 22.599609 L 12.800781 23.599609 L 11.800781 23.400391 C 11.400781 23.300391 11.000391 23.6 10.900391 24 C 10.800391 24.4 11.1 24.800391 11.5 24.900391 L 12.5 25.099609 L 12.300781 26.099609 C 12.200781 26.499609 12.500391 26.9 12.900391 27 C 13.300391 27.1 13.700781 26.800391 13.800781 26.400391 L 14 25.400391 L 15 25.599609 C 15.4 25.699609 15.800391 25.4 15.900391 25 C 16.000391 24.6 15.700781 24.199609 15.300781 24.099609 L 14.300781 23.900391 L 14.5 22.900391 C 14.6 22.500391 14.300391 22.1 13.900391 22 C 13.800391 21.975 13.700781 21.975781 13.605469 21.996094 z M 52.699219 23.900391 C 51.599219 23.900391 50.699219 24.800391 50.699219 25.900391 L 50.699219 29.800781 C 50.699219 30.900781 51.599219 31.800781 52.699219 31.800781 L 61.599609 31.800781 C 62.699609 31.800781 63.599609 30.900781 63.599609 29.800781 L 63.599609 25.900391 C 63.599609 24.800391 62.699609 23.900391 61.599609 23.900391 L 52.699219 23.900391 z M 52.699219 25.800781 L 61.599609 25.800781 L 61.599609 29.699219 L 52.699219 29.699219 L 52.699219 25.800781 z M 32.5 26.599609 C 32 26.599609 31.5 27.099609 31.5 27.599609 C 31.5 28.199609 31.9 28.599609 32.5 28.599609 L 48.699219 28.599609 C 49.299219 28.599609 49.699219 28.199609 49.699219 27.599609 C 49.699219 27.099609 49.299219 26.599609 48.699219 26.599609 L 32.5 26.599609 z M 32.5 34 C 32 34 31.5 34.4 31.5 35 C 31.5 35.6 31.9 36 32.5 36 L 62.599609 36 C 63.199609 36 63.599609 35.6 63.599609 35 C 63.599609 34.4 63.199609 34 62.599609 34 L 32.5 34 z M 32.5 42.5 C 32 42.5 31.5 42.9 31.5 43.5 C 31.5 44.1 31.9 44.5 32.5 44.5 L 62.599609 44.5 C 63.199609 44.5 63.599609 44 63.599609 43.5 C 63.599609 42.9 63.199609 42.5 62.599609 42.5 L 32.5 42.5 z M 64 48.300781 L 68.5 48.300781 L 80.800781 48.300781 C 82.200781 48.300781 83.400391 49.400781 83.400391 50.800781 L 83.400391 71.800781 C 83.400391 73.200781 82.300391 74.300781 80.900391 74.300781 L 68.599609 74.300781 L 64 74.300781 C 62.6 74.300781 61.5 73.200781 61.5 71.800781 L 61.5 50.800781 C 61.5 49.400781 62.6 48.300781 64 48.300781 z M 65.599609 49.5 C 64.599609 49.5 63.800781 50.300781 63.800781 51.300781 L 63.800781 55.800781 C 63.800781 56.800781 64.599609 57.599609 65.599609 57.599609 L 79.300781 57.599609 C 80.300781 57.599609 81.099609 56.800781 81.099609 55.800781 L 81.099609 51.300781 C 81.099609 50.300781 80.300781 49.5 79.300781 49.5 L 65.599609 49.5 z M 65.599609 50.5 L 79.300781 50.5 C 79.700781 50.5 80.099609 50.900781 80.099609 51.300781 L 80.099609 55.800781 C 80.099609 56.200781 79.800781 56.599609 79.300781 56.599609 L 65.599609 56.599609 C 65.199609 56.599609 64.800781 56.300781 64.800781 55.800781 L 64.800781 51.300781 C 64.800781 50.900781 65.099609 50.5 65.599609 50.5 z M 19.300781 58 C 19.000781 58 18.800781 58.2 18.800781 58.5 C 18.800781 59.8 18.099219 60.900391 17.199219 60.900391 C 16.899219 60.900391 16.699219 61.100391 16.699219 61.400391 L 16.699219 69.5 C 16.699219 69.8 16.899219 70 17.199219 70 C 18.099219 70 18.800781 71.100391 18.800781 72.400391 C 18.800781 72.700391 19.000781 72.900391 19.300781 72.900391 L 41.099609 72.900391 C 41.399609 72.800391 41.599609 72.600781 41.599609 72.300781 C 41.599609 71.600781 41.799609 70.999609 42.099609 70.599609 C 42.399609 70.199609 42.799219 70 43.199219 70 C 43.499219 70 43.699219 69.8 43.699219 69.5 L 43.699219 61.400391 C 43.699219 61.100391 43.499219 60.900391 43.199219 60.900391 C 42.799219 60.900391 42.399609 60.700781 42.099609 60.300781 C 41.799609 59.800781 41.599609 59.199609 41.599609 58.599609 C 41.599609 58.499609 41.5 58.299219 41.5 58.199219 C 41.4 57.999219 41.299609 58 41.099609 58 L 19.300781 58 z M 76.699219 58.099609 C 75.699219 58.099609 74.900391 58.900391 74.900391 59.900391 L 74.900391 61.800781 C 74.900391 62.800781 75.699219 63.599609 76.699219 63.599609 L 79.300781 63.599609 C 80.300781 63.599609 81.099609 62.800781 81.099609 61.800781 L 81.099609 59.900391 C 81.099609 58.900391 80.300781 58.099609 79.300781 58.099609 L 76.699219 58.099609 z M 71 58.699219 C 70.5 58.699219 70.199219 59.1 70.199219 59.5 L 70.199219 61.800781 C 70.199219 62.300781 70.6 62.599609 71 62.599609 L 73.400391 62.599609 C 73.900391 62.599609 74.199219 62.200781 74.199219 61.800781 L 74.199219 59.5 C 74.199219 59.1 73.800781 58.699219 73.300781 58.699219 L 71 58.699219 z M 65.199219 58.800781 C 64.699219 58.800781 64.400391 59.199609 64.400391 59.599609 L 64.400391 61.900391 C 64.300391 62.300391 64.699219 62.699219 65.199219 62.699219 L 67.599609 62.699219 C 68.099609 62.699219 68.400391 62.300391 68.400391 61.900391 L 68.400391 59.599609 C 68.400391 59.099609 67.999609 58.800781 67.599609 58.800781 L 65.199219 58.800781 z M 19.900391 59 L 40.699219 59 C 40.799219 59.7 41.000391 60.300781 41.400391 60.800781 C 41.800391 61.300781 42.300781 61.700781 42.800781 61.800781 L 42.800781 69 C 42.300781 69.1 41.800391 69.5 41.400391 70 C 41.000391 70.5 40.799219 71.100781 40.699219 71.800781 L 19.900391 71.800781 C 19.700391 70.400781 18.900781 69.3 17.800781 69 L 17.800781 61.800781 C 18.900781 61.500781 19.700391 60.4 19.900391 59 z M 76.699219 59.099609 L 79.300781 59.099609 C 79.700781 59.099609 80.099609 59.400391 80.099609 59.900391 L 80.099609 61.800781 C 80.099609 62.200781 79.800781 62.599609 79.300781 62.599609 L 76.699219 62.599609 C 76.299219 62.599609 75.900391 62.300781 75.900391 61.800781 L 75.900391 59.900391 C 75.900391 59.500391 76.199219 59.099609 76.699219 59.099609 z M 65.300781 59.699219 L 67.400391 59.699219 L 67.400391 61.699219 L 65.300781 61.699219 L 65.300781 59.699219 z M 71.099609 59.699219 L 73.199219 59.699219 L 73.199219 61.699219 L 71.099609 61.699219 L 71.099609 59.699219 z M 93.996094 60.480469 C 93.900781 60.469531 93.799219 60.475 93.699219 60.5 C 93.299219 60.6 93.099219 61.000391 93.199219 61.400391 L 93.400391 62.400391 L 92.400391 62.599609 C 92.000391 62.699609 91.800391 63.1 91.900391 63.5 C 92.000391 63.9 92.400781 64.099609 92.800781 64.099609 L 93.800781 63.900391 L 94 64.900391 C 94.1 65.300391 94.500391 65.500391 94.900391 65.400391 C 95.300391 65.300391 95.5 64.9 95.5 64.5 L 95.300781 63.5 L 96.300781 63.300781 C 96.500781 63.100781 96.799219 62.700781 96.699219 62.300781 C 96.599219 61.900781 96.200781 61.700781 95.800781 61.800781 L 94.800781 62 L 94.599609 61 C 94.524609 60.7 94.282031 60.513281 93.996094 60.480469 z M 47.300781 61.699219 L 59.599609 61.699219 L 59.599609 68.300781 L 47.300781 68.300781 L 47.300781 61.699219 z M 30.400391 61.800781 C 30.300391 61.800781 30.300781 61.800391 30.300781 61.900391 L 30.199219 62 L 30.199219 62.599609 L 30 62.599609 C 29.7 62.599609 29.399609 62.700391 29.099609 62.900391 C 28.799609 63.100391 28.6 63.3 28.5 63.5 C 28.4 63.7 28.300781 64.000781 28.300781 64.300781 C 28.300781 64.600781 28.399609 64.899609 28.599609 65.099609 C 28.799609 65.299609 29.000781 65.499609 29.300781 65.599609 C 29.500781 65.699609 29.799609 65.800391 30.099609 65.900391 L 30.199219 65.900391 L 30.199219 67.699219 L 30 67.699219 C 29.5 67.699219 29.099219 67.600391 28.699219 67.400391 L 28.5 67.400391 C 28.4 67.400391 28.299219 67.4 28.199219 67.5 C 28.099219 67.6 28.099609 67.699219 28.099609 67.699219 C 28.099609 67.799219 28.099219 67.800391 28.199219 67.900391 C 28.199219 68.000391 28.300391 68 28.400391 68 C 28.900391 68.2 29.4 68.300391 30 68.400391 L 30.199219 68.400391 L 30.199219 69 C 30.199219 69.1 30.200781 69.099609 30.300781 69.099609 C 30.300781 69.099609 30.400391 69.199609 30.400391 69.099609 C 30.500391 69.099609 30.5 69.1 30.5 69 L 30.599609 68.900391 L 30.599609 68.300781 L 30.800781 68.300781 C 31.100781 68.300781 31.399609 68.199609 31.599609 68.099609 C 31.899609 67.999609 32.100781 67.8 32.300781 67.5 C 32.500781 67.3 32.5 66.999219 32.5 66.699219 C 32.5 66.299219 32.399219 66.000781 32.199219 65.800781 C 31.899219 65.600781 31.7 65.500391 31.5 65.400391 C 31.3 65.300391 30.999219 65.199609 30.699219 65.099609 L 30.599609 65.099609 L 30.599609 63.199219 L 30.800781 63.199219 C 31.100781 63.199219 31.500781 63.300391 31.800781 63.400391 L 32 63.400391 C 32.1 63.400391 32.099219 63.400781 32.199219 63.300781 C 32.299219 63.200781 32.300781 63.099609 32.300781 63.099609 C 32.300781 62.899609 32.199609 62.800781 32.099609 62.800781 C 31.699609 62.700781 31.300781 62.599609 30.800781 62.599609 L 30.599609 62.599609 L 30.599609 62 C 30.599609 61.9 30.6 61.900391 30.5 61.900391 L 30.400391 61.800781 z M 37.099609 62.300781 C 35.499609 62.300781 34.099609 63.600781 34.099609 65.300781 C 34.099609 67.000781 35.399609 68.400391 37.099609 68.400391 L 37.199219 68.400391 C 38.799219 68.400391 40.199219 67.100391 40.199219 65.400391 C 40.199219 63.700391 38.799609 62.300781 37.099609 62.300781 z M 23.5 62.5 C 21.8 62.4 20.400391 63.8 20.400391 65.5 C 20.400391 67.2 21.700391 68.599609 23.400391 68.599609 L 23.5 68.599609 C 25.1 68.599609 26.499609 67.299609 26.599609 65.599609 C 26.499609 63.899609 25.2 62.5 23.5 62.5 z M 29.800781 63.099609 L 30 63.099609 L 30 64.900391 L 29.800781 64.900391 C 29.500781 64.800391 29.299219 64.699609 29.199219 64.599609 C 28.999219 64.499609 28.900391 64.3 28.900391 64 C 28.900391 63.7 28.999219 63.500391 29.199219 63.400391 L 29.800781 63.099609 z M 37 63.300781 C 38.2 63.300781 39.099609 64.300391 39.099609 65.400391 C 39.099609 65.900391 38.1 67.400391 37 67.400391 C 35.9 67.400391 35 66.400781 35 65.300781 C 35 64.200781 35.9 63.300781 37 63.300781 z M 71 63.400391 C 70.5 63.400391 70.199219 63.799219 70.199219 64.199219 L 70.199219 66.5 C 70.199219 67 70.6 67.300781 71 67.300781 L 73.400391 67.300781 C 73.900391 67.300781 74.199219 66.9 74.199219 66.5 L 74.199219 64.199219 C 74.199219 63.799219 73.800781 63.400391 73.300781 63.400391 L 71 63.400391 z M 23.400391 63.5 C 24.000391 63.5 24.500391 63.699609 24.900391 64.099609 C 25.300391 64.499609 25.5 64.999609 25.5 65.599609 C 25.4 66.699609 24.500391 67.599609 23.400391 67.599609 C 22.300391 67.599609 21.400391 66.6 21.400391 65.5 C 21.400391 64.4 22.300391 63.5 23.400391 63.5 z M 65.099609 63.5 C 64.599609 63.5 64.300781 63.900781 64.300781 64.300781 L 64.300781 66.599609 C 64.300781 67.099609 64.699609 67.400391 65.099609 67.400391 L 67.5 67.400391 C 68 67.400391 68.300781 66.999609 68.300781 66.599609 L 68.300781 64.300781 C 68.300781 63.800781 67.9 63.5 67.5 63.5 L 65.099609 63.5 z M 76.699219 64 C 75.699219 64 74.900391 64.800781 74.900391 65.800781 L 74.900391 71.199219 C 74.900391 72.199219 75.699219 73 76.699219 73 L 79.300781 73 C 80.300781 73 81.099609 72.199219 81.099609 71.199219 L 81.099609 65.800781 C 81.099609 64.800781 80.300781 64 79.300781 64 L 76.699219 64 z M 65.300781 64.400391 L 67.400391 64.400391 L 67.400391 66.400391 L 65.300781 66.400391 L 65.300781 64.400391 z M 71.099609 64.5 L 73.199219 64.5 L 73.199219 66.5 L 71.099609 66.5 L 71.099609 64.5 z M 76.699219 65 L 79.300781 65 C 79.700781 65 80.099609 65.300781 80.099609 65.800781 L 80.099609 71.199219 C 80.099609 71.599219 79.800781 72 79.300781 72 L 76.699219 72 C 76.299219 72 75.900391 71.699219 75.900391 71.199219 L 75.900391 65.800781 C 75.900391 65.400781 76.199219 65 76.699219 65 z M 30.5 65.800781 L 30.699219 65.900391 C 30.999219 66.000391 31.200781 66.099609 31.300781 66.099609 C 31.500781 66.199609 31.599609 66.399609 31.599609 66.599609 C 31.699609 67.199609 31.299219 67.499609 30.699219 67.599609 L 30.5 67.599609 L 30.5 65.800781 z M 65.199219 68.199219 C 64.699219 68.199219 64.400391 68.6 64.400391 69 L 64.400391 71.300781 L 64.400391 71.5 C 64.600391 71.9 65.299609 72.199219 65.599609 72.199219 L 67.900391 72.199219 C 68.200391 72.199219 68.400391 71.999219 68.400391 71.699219 L 68.400391 69 C 68.400391 68.6 67.999609 68.199219 67.599609 68.199219 L 65.199219 68.199219 z M 71 68.300781 C 70.5 68.300781 70.199219 68.699609 70.199219 69.099609 L 70.199219 71.400391 C 70.199219 71.900391 70.6 72.199219 71 72.199219 L 73.400391 72.199219 C 73.900391 72.199219 74.199219 71.800391 74.199219 71.400391 L 74.199219 69.099609 C 74.199219 68.699609 73.800781 68.300781 73.300781 68.300781 L 71 68.300781 z M 65.300781 69.199219 L 67.400391 69.199219 L 67.400391 71.199219 L 65.599609 71.199219 C 65.499609 71.199219 65.400781 71.199609 65.300781 71.099609 L 65.300781 69.199219 z M 71.099609 69.300781 L 73.199219 69.300781 L 73.199219 71.300781 L 71.099609 71.300781 L 71.099609 69.300781 z M 47.300781 70.199219 L 59.599609 70.199219 L 59.599609 71.699219 C 59.599609 72.599219 59.900391 73.499219 60.400391 74.199219 L 47.099609 74.199219 C 47.199609 73.899219 47.300781 73.499609 47.300781 73.099609 L 47.300781 70.199219 z M 93.199219 74.300781 C 92.599219 74.300781 92.199219 74.700781 92.199219 75.300781 C 92.199219 75.900781 92.599219 76.300781 93.199219 76.300781 L 94.300781 76.300781 C 94.900781 76.300781 95.300781 75.900781 95.300781 75.300781 C 95.300781 74.700781 94.900781 74.300781 94.300781 74.300781 L 93.199219 74.300781 z M 60.003906 77.195312 C 59.717969 77.25625 59.475391 77.500781 59.400391 77.800781 L 59.199219 78.800781 L 58.199219 78.599609 C 57.799219 78.499609 57.400781 78.799219 57.300781 79.199219 C 57.200781 79.599219 57.500391 79.999609 57.900391 80.099609 L 58.900391 80.300781 L 58.699219 81.300781 C 58.599219 81.700781 58.900781 82.099219 59.300781 82.199219 C 59.700781 82.299219 60.099219 81.999609 60.199219 81.599609 L 60.400391 80.599609 L 61.400391 80.800781 C 61.800391 80.900781 62.200781 80.599219 62.300781 80.199219 C 62.400781 79.799219 62.099219 79.400781 61.699219 79.300781 L 60.699219 79.099609 L 60.900391 78.099609 C 61.000391 77.699609 60.700781 77.299219 60.300781 77.199219 C 60.200781 77.174219 60.099219 77.175 60.003906 77.195312 z"/></svg>