<svg xmlns="http://www.w3.org/2000/svg"  viewBox="0 0 50 50" width="50px" height="50px"><path fill="#030000" d="M24,14v2.086c-1.71,0.273-2.824,1.213-3.367,2.16C19.99,19.368,20,20.488,20,20.488 c0,1.54,0.807,2.736,1.824,3.463c1.017,0.727,2.213,1.13,3.33,1.541c1.117,0.411,2.15,0.827,2.818,1.355S29,27.91,29,29 c0,0-0.007,0.725-0.473,1.471C28.061,31.217,27.233,32,25,32c-2.167,0-2.975-0.936-3.48-1.947S21,28,21,28h-2 c0,0-0.014,1.459,0.73,2.947c0.652,1.304,2.032,2.665,4.27,2.982V36h2v-2.057c2.176-0.253,3.538-1.319,4.223-2.414 C31.006,30.275,31,29,31,29c0-1.639-0.766-2.915-1.785-3.721s-2.236-1.248-3.369-1.664s-2.187-0.811-2.857-1.291 S22,21.422,22,20.488c0,0,0.01-0.624,0.367-1.246C22.724,18.62,23.291,18,25,18c1.667,0,2.225,0.686,2.605,1.447S28,21,28,21h2 c0,0,0.014-1.209-0.605-2.447c-0.525-1.049-1.647-2.144-3.395-2.457V14H24z"/><path fill="none" stroke="#030000" stroke-linecap="round" stroke-linejoin="round" stroke-miterlimit="10" stroke-width="4" d="M43,25c0,9.941-8.059,18-18,18S7,34.941,7,25S15.059,7,25,7"/><line x1="45" x2="36" y1="6" y2="15" fill="none" stroke="#030000" stroke-linecap="round" stroke-linejoin="round" stroke-miterlimit="10" stroke-width="4"/><path fill="#030000" d="M35.336,6.027C36.319,6.187,37,7.111,37,8.107V14h5.893c0.996,0,1.92,0.681,2.08,1.664 C45.177,16.917,44.215,18,43,18H33V8C33,6.785,34.083,5.823,35.336,6.027z"/></svg>