<svg xmlns="http://www.w3.org/2000/svg"  viewBox="0 0 512 512" width="64px" height="64px"><path d="M 101.99023 57.855469 C 99.498234 57.855469 97.478516 59.875188 97.478516 62.367188 L 97.478516 82.060547 L 61.453125 82.060547 C 58.961125 82.060547 56.941406 84.078312 56.941406 86.570312 L 56.941406 134.97852 L 56.941406 344.74609 L 56.941406 385.08984 C 56.941406 387.58084 58.961125 389.59961 61.453125 389.59961 L 272.24805 389.59961 C 284.44095 427.01442 319.78453 454.14258 361.37891 454.14258 C 413.03491 454.14258 455.05859 412.30681 455.05859 360.88281 C 455.05859 336.80405 445.8443 314.82752 430.74219 298.26367 L 430.74219 134.97852 L 430.74219 86.570312 C 430.74219 84.079313 428.72342 82.060547 426.23242 82.060547 L 390.17773 82.060547 L 390.17773 62.367188 C 390.17773 59.876188 388.15897 57.855469 385.66797 57.855469 C 383.17597 57.855469 381.1543 59.875188 381.1543 62.367188 L 381.1543 82.060547 L 349.6543 82.060547 L 349.6543 62.367188 C 349.6543 59.876188 347.63458 57.855469 345.14258 57.855469 C 342.65158 57.855469 340.63281 59.875188 340.63281 62.367188 L 340.63281 82.060547 L 309.13086 82.060547 L 309.13086 62.367188 C 309.13086 59.876188 307.11014 57.855469 304.61914 57.855469 C 302.12714 57.855469 300.10742 59.875188 300.10742 62.367188 L 300.10742 82.060547 L 268.60742 82.060547 L 268.60742 62.367188 C 268.60742 59.876188 266.5877 57.855469 264.0957 57.855469 C 261.6037 57.855469 259.58398 59.875188 259.58398 62.367188 L 259.58398 82.060547 L 228.07422 82.060547 L 228.07422 62.367188 C 228.07422 59.876188 226.05545 57.855469 223.56445 57.855469 C 221.07245 57.855469 219.05273 59.875188 219.05273 62.367188 L 219.05273 82.060547 L 187.55078 82.060547 L 187.55078 62.367188 C 187.55078 59.876188 185.53006 57.855469 183.03906 57.855469 C 180.54806 57.855469 178.52734 59.875188 178.52734 62.367188 L 178.52734 82.060547 L 147.02539 82.060547 L 147.02539 62.367188 C 147.02539 59.876188 145.00663 57.855469 142.51562 57.855469 C 140.02462 57.855469 138.00391 59.875188 138.00391 62.367188 L 138.00391 82.060547 L 106.50195 82.060547 L 106.50195 62.367188 C 106.50195 59.876188 104.48123 57.855469 101.99023 57.855469 z M 65.964844 91.082031 L 97.478516 91.082031 L 97.478516 110.77344 C 97.478516 113.26444 99.498234 115.2832 101.99023 115.2832 C 104.48123 115.2832 106.50195 113.26444 106.50195 110.77344 L 106.50195 91.082031 L 138.00391 91.082031 L 138.00391 110.77344 C 138.00391 113.26444 140.02363 115.2832 142.51562 115.2832 C 145.00663 115.2832 147.02539 113.26444 147.02539 110.77344 L 147.02539 91.082031 L 178.52734 91.082031 L 178.52734 110.77344 C 178.52734 113.26444 180.54706 115.2832 183.03906 115.2832 C 185.53006 115.2832 187.55078 113.26444 187.55078 110.77344 L 187.55078 91.082031 L 219.05273 91.082031 L 219.05273 110.77344 C 219.05273 113.26444 221.07245 115.2832 223.56445 115.2832 C 226.05545 115.2832 228.07422 113.26444 228.07422 110.77344 L 228.07422 91.082031 L 259.58398 91.082031 L 259.58398 110.77344 C 259.58398 113.26444 261.6037 115.2832 264.0957 115.2832 C 266.5877 115.2832 268.60642 113.26444 268.60742 110.77344 L 268.60742 91.082031 L 300.10742 91.082031 L 300.10742 110.77344 C 300.10742 113.26444 302.12714 115.2832 304.61914 115.2832 C 307.11014 115.2832 309.13086 113.26444 309.13086 110.77344 L 309.13086 91.082031 L 340.63281 91.082031 L 340.63281 110.77344 C 340.63281 113.26444 342.65158 115.2832 345.14258 115.2832 C 347.63458 115.2832 349.6533 113.26444 349.6543 110.77344 L 349.6543 91.082031 L 381.1543 91.082031 L 381.1543 110.77344 C 381.1543 113.26444 383.17597 115.2832 385.66797 115.2832 C 388.15897 115.2832 390.17773 113.26444 390.17773 110.77344 L 390.17773 91.082031 L 421.7207 91.082031 L 421.7207 130.4668 L 65.964844 130.4668 L 65.964844 91.082031 z M 65.964844 139.48828 L 421.7207 139.48828 L 421.7207 289.5293 C 408.53627 278.41887 392.76331 271.30248 375.77734 268.72461 C 375.67581 268.70895 375.5743 268.69307 375.47266 268.67773 C 374.51909 268.5362 373.5625 268.40764 372.60156 268.29492 C 371.88876 268.20981 371.17461 268.13152 370.45703 268.0625 C 370.01801 268.02106 369.57907 267.98074 369.13867 267.94531 C 368.05008 267.85602 366.95612 267.78417 365.85742 267.73242 C 365.59673 267.7204 365.33533 267.71305 365.07422 267.70312 C 363.84741 267.65549 362.61723 267.62305 361.37891 267.62305 C 316.98617 267.62305 279.70631 298.52061 270.09961 339.84766 C 270.06978 339.97597 270.04492 340.10586 270.01562 340.23438 L 65.964844 340.23438 L 65.964844 139.48828 z M 158.72852 162.51562 C 156.23752 162.51562 154.21875 164.53439 154.21875 167.02539 L 154.21875 199.19336 C 154.21875 201.68436 156.23752 203.70508 158.72852 203.70508 L 191.15234 203.70508 C 193.64434 203.70508 195.66506 201.68536 195.66406 199.19336 L 195.66406 167.02539 C 195.66406 164.53439 193.64434 162.51562 191.15234 162.51562 L 158.72852 162.51562 z M 223.57617 162.51562 C 221.08517 162.51562 219.06445 164.53439 219.06445 167.02539 L 219.06445 199.19336 C 219.06445 201.68436 221.08517 203.70508 223.57617 203.70508 L 256 203.70508 C 258.492 203.70508 260.51172 201.68536 260.51172 199.19336 L 260.51172 167.02539 C 260.51172 164.53439 258.492 162.51562 256 162.51562 L 223.57617 162.51562 z M 288.42969 162.51562 C 285.93869 162.51562 283.91992 164.53439 283.91992 167.02539 L 283.91992 199.19336 C 283.91992 201.68436 285.93869 203.70508 288.42969 203.70508 L 320.85352 203.70508 C 323.34552 203.70508 325.36423 201.68536 325.36523 199.19336 L 325.36523 167.02539 C 325.36523 164.53439 323.34647 162.51562 320.85547 162.51562 L 288.42969 162.51562 z M 353.27539 162.51562 C 350.78339 162.51562 348.76367 164.53439 348.76367 167.02539 L 348.76367 199.19336 C 348.76367 201.68436 350.78339 203.70508 353.27539 203.70508 L 385.69922 203.70508 C 388.19022 203.70508 390.21094 201.68536 390.21094 199.19336 L 390.21094 167.02539 C 390.21094 164.53439 388.19022 162.51562 385.69922 162.51562 L 353.27539 162.51562 z M 163.24023 171.53711 L 186.64258 171.53711 L 186.64258 194.68359 L 163.24023 194.68359 L 163.24023 171.53711 z M 228.08789 171.53711 L 251.48828 171.53711 L 251.48828 194.68359 L 228.08789 194.68359 L 228.08789 171.53711 z M 292.94141 171.53711 L 316.3418 171.53711 L 316.3418 194.68359 L 292.94141 194.68359 L 292.94141 171.53711 z M 357.78711 171.53711 L 381.1875 171.53711 L 381.1875 194.68359 L 357.78711 194.68359 L 357.78711 171.53711 z M 101.98438 227.38672 C 99.493375 227.38672 97.472656 229.40548 97.472656 231.89648 L 97.472656 264.06836 C 97.472656 266.56036 99.493375 268.58008 101.98438 268.58008 L 134.4082 268.58008 C 136.8992 268.58008 138.91992 266.56136 138.91992 264.06836 L 138.91992 231.89648 C 138.91992 229.40548 136.9002 227.38672 134.4082 227.38672 L 101.98438 227.38672 z M 166.83008 227.38672 C 164.33908 227.38672 162.32031 229.40548 162.32031 231.89648 L 162.32031 264.06836 C 162.32031 266.56036 164.33808 268.58008 166.83008 268.58008 L 199.25391 268.58008 C 201.74591 268.58008 203.76467 266.56136 203.76367 264.06836 L 203.76367 231.89648 C 203.76367 229.40548 201.74491 227.38672 199.25391 227.38672 L 166.83008 227.38672 z M 231.68359 227.38672 C 229.19259 227.38672 227.17383 229.40548 227.17383 231.89648 L 227.17383 264.06836 C 227.17383 266.56036 229.19259 268.58008 231.68359 268.58008 L 264.10742 268.58008 C 266.59942 268.58008 268.61914 266.56136 268.61914 264.06836 L 268.61914 231.89648 C 268.61914 229.40548 266.59842 227.38672 264.10742 227.38672 L 231.68359 227.38672 z M 106.49414 236.41016 L 129.89648 236.41016 L 129.89648 259.55664 L 106.49414 259.55664 L 106.49414 236.41016 z M 171.3418 236.41016 L 194.74219 236.41016 L 194.74219 259.55664 L 171.3418 259.55664 L 171.3418 236.41016 z M 236.19531 236.41016 L 259.5957 236.41016 L 259.5957 259.55664 L 236.19531 259.55664 L 236.19531 236.41016 z M 361.37891 276.64648 C 408.05991 276.64648 446.03516 314.43481 446.03516 360.88281 C 446.03516 407.33081 408.05891 445.11914 361.37891 445.11914 C 322.0835 445.11914 288.95729 418.34035 279.45898 382.16016 C 279.45064 382.12822 279.4419 382.0964 279.43359 382.06445 C 279.40024 381.93619 279.36673 381.8081 279.33398 381.67969 C 279.2064 381.18163 279.08343 380.68122 278.96484 380.17969 C 278.89935 379.90138 278.83608 379.62271 278.77344 379.34375 C 278.76994 379.32818 278.76716 379.31245 278.76367 379.29688 C 278.76132 379.28641 278.75821 379.27609 278.75586 379.26562 C 278.65238 378.80487 278.54896 378.34441 278.45312 377.88086 C 278.33927 377.32771 278.23743 376.77221 278.13477 376.2168 C 278.09201 375.98546 278.04472 375.75515 278.00391 375.52344 C 277.96088 375.28017 277.92177 375.03499 277.88086 374.79102 C 277.80423 374.33233 277.73308 373.87213 277.66406 373.41211 C 277.63603 373.22524 277.6049 373.03865 277.57812 372.85156 C 277.54326 372.60876 277.50933 372.36651 277.47656 372.12305 C 277.40292 371.57441 277.34018 371.02487 277.27734 370.47461 C 277.24105 370.15665 277.19675 369.83994 277.16406 369.52148 C 277.12245 369.1162 277.09434 368.70877 277.05859 368.30273 C 277.01608 367.81955 276.9678 367.33767 276.93359 366.85352 C 276.91903 366.64762 276.9076 366.44067 276.89453 366.23438 C 276.89449 366.23373 276.89457 366.23307 276.89453 366.23242 C 276.85233 365.56526 276.81937 364.89718 276.79297 364.22852 C 276.78307 363.97778 276.77135 363.72784 276.76367 363.47656 C 276.73722 362.61255 276.7207 361.7487 276.7207 360.88281 C 276.7207 359.68863 276.74999 358.49309 276.80078 357.29883 C 276.80139 357.2845 276.80212 357.27018 276.80273 357.25586 C 276.8071 357.15379 276.80972 357.05119 276.81445 356.94922 C 276.81497 356.93816 276.81589 356.92707 276.81641 356.91602 C 276.87137 355.7482 276.95339 354.58196 277.05664 353.41797 C 277.06958 353.27212 277.08202 353.12611 277.0957 352.98047 C 277.20132 351.85631 277.33002 350.73418 277.48047 349.61719 C 277.50695 349.42092 277.53466 349.22514 277.5625 349.0293 C 277.71863 347.92917 277.89232 346.83372 278.0918 345.74414 C 278.09228 345.74151 278.09327 345.73896 278.09375 345.73633 C 278.33115 344.44064 278.59614 343.15532 278.89258 341.88086 C 279.05042 341.20216 279.21636 340.52783 279.39062 339.85547 C 279.73932 338.51015 280.12011 337.17798 280.5332 335.85938 C 280.73964 335.20036 280.95359 334.54654 281.17578 333.89453 C 283.1757 328.02595 285.80858 322.44533 288.99414 317.23438 C 289.70167 316.07694 290.43615 314.93846 291.19727 313.81836 C 291.19756 313.81792 291.19697 313.81684 291.19727 313.81641 C 291.95841 312.6963 292.7476 311.59662 293.56055 310.51562 C 293.56085 310.51522 293.56024 310.51408 293.56055 310.51367 C 294.37352 309.43267 295.21318 308.37215 296.07617 307.33203 C 296.07649 307.33165 296.07586 307.33046 296.07617 307.33008 C 296.93951 306.28959 297.82668 305.27124 298.73828 304.27344 C 300.56149 302.27784 302.48077 300.36885 304.48633 298.55469 C 306.49189 296.74053 308.5842 295.02084 310.75781 293.40234 C 315.10504 290.16535 319.77335 287.33385 324.70703 284.96484 C 325.94045 284.37259 327.19142 283.80895 328.45703 283.27539 C 329.72264 282.74183 331.00282 282.23871 332.29883 281.76562 C 333.59484 281.29254 334.90585 280.85029 336.23047 280.43945 C 338.2174 279.8232 340.23692 279.27783 342.2832 278.80664 C 348.42206 277.39306 354.81439 276.64648 361.37891 276.64648 z M 357.49219 312.44336 L 357.49219 317.76758 C 351.30319 318.37858 346.36458 320.69166 342.64258 324.72266 C 338.92058 328.73466 337.05078 333.71086 337.05078 339.63086 C 337.05078 345.47486 338.69714 350.43206 341.99414 354.53906 C 345.26714 358.62506 350.43219 361.67836 357.49219 363.69336 L 357.49219 386.35156 C 355.54619 385.40556 353.78427 383.90931 352.19727 381.82031 C 350.60527 379.73131 349.50955 377.25419 348.93555 374.36719 L 334.82617 376.03125 C 335.92017 383.07925 338.40064 388.55392 342.30664 392.41992 C 346.21964 396.28392 351.27019 398.57789 357.49219 399.33789 L 357.49219 409.32227 L 365.37695 409.32227 L 365.37695 399.22461 C 372.46795 398.11561 377.9888 395.34128 381.9668 390.86328 C 385.9458 386.38828 387.93164 380.89619 387.93164 374.36719 C 387.93164 368.52119 386.35445 363.72914 383.18945 359.99414 C 380.04145 356.27414 374.09795 353.22653 365.37695 350.89453 L 365.37695 329.75391 C 368.89295 331.27291 371.08159 334.1532 371.93359 338.4082 L 385.70703 336.63281 C 384.76503 331.21681 382.57492 326.88539 379.16992 323.65039 C 375.74692 320.41239 371.15395 318.45358 365.37695 317.76758 L 365.37695 312.44336 L 357.49219 312.44336 z M 357.49219 329.53125 L 357.49219 348.28516 C 355.15819 347.28816 353.41411 345.95517 352.28711 344.32617 C 351.16011 342.68117 350.60352 340.90505 350.60352 338.99805 C 350.60352 336.91005 351.21312 335.00758 352.45312 333.26758 C 353.69213 331.52758 355.36119 330.28925 357.49219 329.53125 z M 65.964844 349.25977 L 268.42383 349.25977 C 268.31432 350.13278 268.21976 351.01037 268.13477 351.89062 C 268.13408 351.89777 268.1335 351.90496 268.13281 351.91211 C 268.11 352.14831 268.08937 352.38467 268.06836 352.62109 C 268.00895 353.29157 267.95713 353.96425 267.91211 354.63867 C 267.91141 354.64908 267.91085 354.65951 267.91016 354.66992 C 267.89426 354.90819 267.87735 355.14637 267.86328 355.38477 C 267.86309 355.38801 267.86347 355.39129 267.86328 355.39453 C 267.82459 356.05475 267.79429 356.71706 267.76953 357.38086 C 267.75903 357.66022 267.74627 357.93934 267.73828 358.21875 C 267.71319 359.10435 267.69727 359.99128 267.69727 360.88281 C 267.69727 361.69815 267.70947 362.51188 267.73047 363.32227 C 267.73696 363.57192 267.74933 363.82081 267.75781 364.07031 C 267.777 364.63622 267.79489 365.20229 267.82422 365.76562 C 267.82459 365.77282 267.8258 365.77991 267.82617 365.78711 C 267.83764 366.00597 267.85419 366.22464 267.86719 366.44336 C 267.90293 367.04549 267.94106 367.64706 267.98828 368.24609 C 268.00735 368.48798 268.03179 368.72903 268.05273 368.9707 C 268.0998 369.51352 268.14672 370.05556 268.20312 370.5957 C 268.24006 370.94976 268.2852 371.30275 268.32617 371.65625 C 268.32828 371.67446 268.32991 371.69273 268.33203 371.71094 C 268.3826 372.14434 268.43174 372.57817 268.48828 373.00977 C 268.48923 373.01699 268.49124 373.02403 268.49219 373.03125 C 268.54073 373.40179 268.59545 373.77079 268.64844 374.14062 C 268.70523 374.53612 268.76049 374.93228 268.82227 375.32617 C 268.8885 375.74947 268.96114 376.17149 269.0332 376.59375 C 269.03454 376.60156 269.03578 376.60938 269.03711 376.61719 C 269.09809 376.97296 269.15763 377.32919 269.22266 377.68359 C 269.22494 377.69605 269.22818 377.70825 269.23047 377.7207 C 269.31324 378.17206 269.40078 378.62224 269.49023 379.07227 C 269.54859 379.36492 269.60686 379.65755 269.66797 379.94922 C 269.66852 379.95185 269.66937 379.9544 269.66992 379.95703 C 269.71299 380.16317 269.75045 380.37033 269.79492 380.57617 L 65.964844 380.57617 L 65.964844 349.25977 z M 365.375 366.02344 C 368.653 366.96544 371.00259 368.29964 372.43359 370.05664 C 373.87259 371.79264 374.59766 373.88206 374.59766 376.28906 C 374.59766 379.00606 373.74739 381.35552 372.02539 383.35352 C 370.32439 385.35052 368.10095 386.64628 365.37695 387.23828 L 365.375 387.23828 L 365.375 366.02344 z"/></svg>